<svg width="40" height="40" viewBox="0 0 40 40" fill="none" xmlns="http://www.w3.org/2000/svg">
<rect width="40" height="40" fill="none"/>
<circle cx="20" cy="20" r="20" fill="#9F9F9F"/>
<path d="M23.0333 26.24V15.2H25.9453V26.24H23.0333ZM14.0413 26.24V15.2H16.9533V26.24H14.0413ZM19.8973 11.456V8.96H20.0893V11.456H19.8973ZM19.8973 32.48V29.952H20.0893V32.48H19.8973ZM14.0413 15.2C14.0413 13.984 14.2973 12.9173 14.8093 12C15.3426 11.0613 16.0466 10.3253 16.9213 9.792C17.8173 9.23733 18.8306 8.96 19.9613 8.96V11.456C19.0226 11.456 18.2866 11.7867 17.7533 12.448C17.2199 13.088 16.9533 14.0053 16.9533 15.2H14.0413ZM25.9453 15.2H23.0333C23.0333 14.0053 22.7666 13.088 22.2333 12.448C21.7213 11.7867 20.9853 11.456 20.0253 11.456V8.96C21.1559 8.96 22.1586 9.23733 23.0333 9.792C23.9293 10.3253 24.6333 11.0613 25.1453 12C25.6786 12.9173 25.9453 13.984 25.9453 15.2ZM14.0413 26.24H16.9533C16.9533 27.4133 17.2199 28.3307 17.7533 28.992C18.2866 29.632 19.0226 29.952 19.9613 29.952V32.48C18.8306 32.48 17.8173 32.2133 16.9213 31.68C16.0466 31.1253 15.3426 30.3787 14.8093 29.44C14.2973 28.5013 14.0413 27.4347 14.0413 26.24ZM25.9453 26.24C25.9453 27.4347 25.6786 28.5013 25.1453 29.44C24.6333 30.3787 23.9293 31.1253 23.0333 31.68C22.1586 32.2133 21.1559 32.48 20.0253 32.48V29.952C20.9853 29.952 21.7213 29.632 22.2333 28.992C22.7666 28.3307 23.0333 27.4133 23.0333 26.24H25.9453Z" fill="black"/>
</svg>
