<svg width="40" height="40" viewBox="0 0 40 40" fill="none" xmlns="http://www.w3.org/2000/svg">
<rect width="40" height="40" fill="none"/>
<circle cx="20" cy="20" r="20" fill="#3FAFFF"/>
<path d="M14.368 29.408C14.3893 27.9787 14.592 26.752 14.976 25.728C15.3813 24.6827 15.8933 23.7867 16.512 23.04C17.152 22.272 17.824 21.5787 18.528 20.96C19.232 20.32 19.8933 19.6907 20.512 19.072C21.1307 18.432 21.6427 17.7493 22.048 17.024C22.4533 16.2773 22.656 15.4027 22.656 14.4C22.656 14.4 22.752 14.4 22.944 14.4C23.136 14.4 23.3707 14.4 23.648 14.4C23.9467 14.4 24.2453 14.4 24.544 14.4C24.8427 14.4 25.088 14.4 25.28 14.4C25.472 14.4 25.568 14.4 25.568 14.4C25.568 15.7227 25.3653 16.8533 24.96 17.792C24.5547 18.7093 24.032 19.52 23.392 20.224C22.7733 20.928 22.1013 21.5893 21.376 22.208C20.672 22.8053 20 23.4347 19.36 24.096C18.7413 24.7573 18.2293 25.5147 17.824 26.368C17.4187 27.2 17.2053 28.2133 17.184 29.408H14.368ZM14.368 32V29.408H25.536V32H14.368ZM16.608 14.016L13.92 13.472C14.048 12.5333 14.368 11.712 14.88 11.008C15.4133 10.2827 16.096 9.71733 16.928 9.312C17.76 8.90667 18.6667 8.704 19.648 8.704V11.232C18.88 11.232 18.208 11.456 17.632 11.904C17.056 12.352 16.7147 13.056 16.608 14.016ZM25.568 14.432H22.656C22.656 13.4933 22.368 12.7253 21.792 12.128C21.216 11.5307 20.4907 11.232 19.616 11.232V8.704C20.7467 8.704 21.76 8.96 22.656 9.472C23.552 9.96266 24.256 10.6453 24.768 11.52C25.3013 12.3733 25.568 13.344 25.568 14.432Z" fill="black"/>
</svg>
