<svg width="40" height="40" viewBox="0 0 40 40" fill="none" xmlns="http://www.w3.org/2000/svg">
<circle cx="20" cy="20" r="20" fill="#5FDF8F"/>
<circle cx="20" cy="20" r="19" stroke="#FFFFFF" stroke-width="2" stroke-opacity="0.3"/>
<path d="M19.421 21.408V18.88C20.2317 18.88 20.893 18.528 21.405 17.824C21.9383 17.12 22.205 16.2133 22.205 15.104H25.117C25.117 16.32 24.8717 17.408 24.381 18.368C23.9117 19.3067 23.2503 20.0533 22.397 20.608C21.5437 21.1413 20.5517 21.408 19.421 21.408ZM22.525 26.816V24.576H25.437V26.816H22.525ZM17.469 21.408V18.88H19.453V21.408H17.469ZM22.205 15.136C22.205 14.0693 21.9383 13.1947 21.405 12.512C20.893 11.8293 20.2317 11.488 19.421 11.488V8.96C20.5517 8.96 21.5437 9.22667 22.397 9.76C23.2503 10.272 23.9117 10.9973 24.381 11.936C24.8717 12.8533 25.117 13.92 25.117 15.136H22.205ZM25.437 26.784C25.437 27.872 25.181 28.8533 24.669 29.728C24.157 30.5813 23.453 31.264 22.557 31.776C21.661 32.2667 20.6477 32.512 19.517 32.512V29.984C20.3917 29.984 21.1063 29.6853 21.661 29.088C22.237 28.4693 22.525 27.7013 22.525 26.784H25.437ZM25.437 24.608H22.525C22.525 23.6693 22.237 22.9013 21.661 22.304C21.1063 21.7067 20.3917 21.408 19.517 21.408V18.88C20.6477 18.88 21.661 19.1253 22.557 19.616C23.453 20.1067 24.157 20.7893 24.669 21.664C25.181 22.5387 25.437 23.52 25.437 24.608ZM16.413 14.272L13.725 13.728C13.853 12.7893 14.173 11.968 14.685 11.264C15.2183 10.5387 15.901 9.97333 16.733 9.568C17.565 9.16267 18.4717 8.96 19.453 8.96V11.488C18.685 11.488 18.013 11.712 17.437 12.16C16.861 12.608 16.5197 13.312 16.413 14.272ZM16.509 27.2C16.6157 28.1387 16.9463 28.8427 17.501 29.312C18.077 29.76 18.7597 29.984 19.549 29.984V32.512C18.5463 32.512 17.629 32.3093 16.797 31.904C15.9863 31.4987 15.3143 30.9333 14.781 30.208C14.269 29.4827 13.949 28.6613 13.821 27.744L16.509 27.2Z" fill="black"/>
</svg>
