<svg width="40" height="40" viewBox="0 0 40 40" fill="none" xmlns="http://www.w3.org/2000/svg">
<circle cx="20" cy="20" r="20" fill="#FF7F00"/>
<circle cx="20" cy="20" r="19" stroke="#FFFFFF" stroke-width="2" stroke-opacity="0.4"/>
<path d="M11.5056 22.464V9.44H14.2576V22.464H11.5056ZM19.8896 26.272V22.56H22.8016V26.272H19.8896ZM11.5056 12.032V9.44H22.2256V12.032H11.5056ZM19.8896 22.56C19.8896 21.6 19.6016 20.8107 19.0256 20.192C18.4496 19.5733 17.7243 19.264 16.8496 19.264L17.2336 16.864C18.3003 16.864 19.2496 17.1093 20.0816 17.6C20.935 18.0907 21.5963 18.7733 22.0656 19.648C22.5563 20.5013 22.8016 21.472 22.8016 22.56H19.8896ZM12.4016 22.464C12.4016 21.3973 12.6043 20.448 13.0096 19.616C13.4363 18.7627 14.023 18.0907 14.7696 17.6C15.5163 17.1093 16.3483 16.864 17.2656 16.864L16.8816 19.264C16.135 19.264 15.5056 19.5627 14.9936 20.16C14.503 20.7573 14.2576 21.5253 14.2576 22.464H12.4016ZM22.8016 26.272C22.8016 27.4667 22.535 28.5333 22.0016 29.472C21.4896 30.4107 20.7856 31.1573 19.8896 31.712C19.015 32.2453 18.0123 32.512 16.8816 32.512V29.984C17.8416 29.984 18.5776 29.6533 19.0896 28.992C19.623 28.3307 19.8896 27.424 19.8896 26.272H22.8016ZM13.8736 27.2C13.9803 28.1387 14.3216 28.8427 14.8976 29.312C15.4736 29.76 16.1456 29.984 16.9136 29.984V32.512C15.9323 32.512 15.0256 32.3093 14.1936 31.904C13.3616 31.4987 12.679 30.9333 12.1456 30.208C11.6336 29.4827 11.3136 28.6613 11.1856 27.744L13.8736 27.2Z" fill="black"/>
<path d="M23.1719 15.32V13.7H28.8319V15.32H23.1719Z" fill="black"/>
</svg>
