<svg width="40" height="40" viewBox="0 0 40 40" fill="none" xmlns="http://www.w3.org/2000/svg">
<rect width="40" height="40" fill="none"/>
<circle cx="20" cy="20" r="20" fill="#DF0F0F"/>
<path d="M11.3419 23.904C11.3419 22.1973 11.5125 20.5973 11.8539 19.104C12.2165 17.6107 12.6965 16.2347 13.2939 14.976C13.8912 13.696 14.5525 12.5547 15.2779 11.552C16.0245 10.528 16.7925 9.632 17.5819 8.864L19.7579 10.432C19.0539 11.2 18.3712 12 17.7099 12.832C17.0485 13.6427 16.4619 14.56 15.9499 15.584C15.4379 16.5867 15.0219 17.76 14.7019 19.104C14.4032 20.448 14.2539 22.048 14.2539 23.904H11.3419ZM11.3419 26.24V24.064H14.2539V26.24H11.3419ZM20.2379 26.24V24.064H23.1499V26.24H20.2379ZM23.1499 26.24C23.1499 27.4347 22.8832 28.5013 22.3499 29.44C21.8379 30.3787 21.1339 31.1253 20.2379 31.68C19.3632 32.2133 18.3605 32.48 17.2299 32.48V29.952C18.1899 29.952 18.9259 29.632 19.4379 28.992C19.9712 28.3307 20.2379 27.4133 20.2379 26.24H23.1499ZM11.3419 26.24H14.2539C14.2539 27.4133 14.5205 28.3307 15.0539 28.992C15.5872 29.632 16.3232 29.952 17.2619 29.952V32.48C16.1312 32.48 15.1179 32.2133 14.2219 31.68C13.3472 31.1253 12.6432 30.3787 12.1099 29.44C11.5979 28.5013 11.3419 27.4347 11.3419 26.24ZM23.1499 24.064H20.2379C20.2379 22.8693 19.9712 21.952 19.4379 21.312C18.9259 20.672 18.1899 20.352 17.2299 20.352V17.824C18.3605 17.824 19.3632 18.1013 20.2379 18.656C21.1339 19.1893 21.8379 19.9253 22.3499 20.864C22.8832 21.8027 23.1499 22.8693 23.1499 24.064ZM11.3419 24.064C11.3419 22.8693 11.5979 21.8027 12.1099 20.864C12.6432 19.9253 13.3472 19.1893 14.2219 18.656C15.1179 18.1013 16.1312 17.824 17.2619 17.824V20.352C16.3232 20.352 15.5872 20.672 15.0539 21.312C14.5205 21.952 14.2539 22.8693 14.2539 24.064H11.3419Z" fill="white"/>
<path d="M23.1719 15.32V13.7H28.8319V15.32H23.1719Z" fill="white"/>
</svg>
